# xmcd
#
# Track frame offsets: 
#        150
#        12935
#        31085
#        43284
#        59913
#        71039
#        87206
#        104846
#        118358
#        131365
#        147248
#
# Disc length: 2201 seconds
#
# Revision: 0
# Processed by: cddbd v1.5.2PL0 Copyright (c) Steve Scherf et al.
# Submitted via: ExactAudioCopy v1.0b1
#
DISCID=a808970b
DTITLE=Chris LeDoux - Cowboy
DYEAR=2000
DGENRE=Country
TTITLE0=He Rides The Wild Horses
TTITLE1=Silence on the Line
TTITLE2=Ten Seconds In The Saddle.
TTITLE3=our first year
TTITLE4=I'm Country
TTITLE5=Blue Eyes and Freckles
TTITLE6=Hippies In Calgary
TTITLE7=A Cowboy's Got to Ride
TTITLE8=The Yellow Stud
TTITLE9=Running Through the Rain
TTITLE10=Song of Wyoming
EXTD=
EXTT0=
EXTT1=
EXTT2=
EXTT3=
EXTT4=
EXTT5=
EXTT6=
EXTT7=
EXTT8=
EXTT9=
EXTT10=
PLAYORDER=
